<?xml version="1.0" encoding="utf-8"?>
<!-- Generator: Adobe Illustrator 25.1.0, SVG Export Plug-In . SVG Version: 6.00 Build 0)  -->
<svg version="1.1" id="Layer_1" xmlns="http://www.w3.org/2000/svg" xmlns:xlink="http://www.w3.org/1999/xlink" x="0px" y="0px"
	 viewBox="0 0 163 96" style="enable-background:new 0 0 163 96;" xml:space="preserve">
<style type="text/css">
	.st0{fill:#8EC4D6;}
	.st1{fill:#B1BED7;}
	.st2{opacity:0.5;fill:#178BAF;}
	.st3{opacity:0.5;fill:#647DAF;}
	.st4{fill:#70A5C4;}
</style>
<g>
	<path d="M9.1,77.4c0-1,0.3-1.8,1-2.4c0.7-0.7,1.5-1,2.5-1c1,0,1.8,0.3,2.5,1c0.7,0.7,1,1.5,1,2.5c0,1-0.3,1.8-1,2.5
		c-0.7,0.7-1.5,1-2.5,1c-0.9,0-1.7-0.3-2.3-0.9C9.5,79.3,9.1,78.5,9.1,77.4z M10.1,77.4c0,0.7,0.2,1.4,0.8,1.8
		c0.5,0.5,1.1,0.7,1.7,0.7c0.7,0,1.3-0.2,1.8-0.7c0.5-0.5,0.7-1.1,0.7-1.8c0-0.7-0.2-1.3-0.7-1.8c-0.5-0.5-1.1-0.7-1.8-0.7
		c-0.7,0-1.3,0.2-1.8,0.7C10.4,76.1,10.1,76.7,10.1,77.4z"/>
	<path d="M20.5,78.1v2.7h-1V74h1.2c0.6,0,1,0,1.3,0.1c0.3,0.1,0.5,0.2,0.8,0.4c0.4,0.4,0.6,0.9,0.6,1.4c0,0.6-0.2,1.1-0.6,1.5
		c-0.4,0.4-1,0.5-1.7,0.5H20.5z M20.5,77.1h0.4c0.9,0,1.4-0.4,1.4-1.1c0-0.7-0.5-1-1.4-1h-0.3V77.1z"/>
	<path d="M30.1,75h-2.7v1.6H30v1h-2.6v2.3h2.7v1h-3.7V74h3.7V75z"/>
	<path d="M33.5,80.8v-7.2l4.9,5.2V74h1v7.2l-4.9-5.1v4.7H33.5z"/>
	<path d="M51.8,75.1l-0.8,0.5c-0.2-0.3-0.3-0.4-0.4-0.5c-0.1-0.1-0.3-0.1-0.6-0.1c-0.3,0-0.5,0.1-0.7,0.2C49,75.3,49,75.5,49,75.7
		c0,0.3,0.2,0.6,0.7,0.8l0.7,0.3c0.5,0.2,0.9,0.5,1.2,0.8c0.3,0.3,0.4,0.7,0.4,1.2c0,0.6-0.2,1.1-0.6,1.5c-0.4,0.4-0.9,0.6-1.6,0.6
		c-0.6,0-1.1-0.2-1.5-0.5c-0.4-0.3-0.6-0.8-0.7-1.5l1-0.2c0,0.4,0.1,0.7,0.2,0.8c0.2,0.3,0.5,0.4,0.9,0.4c0.3,0,0.6-0.1,0.8-0.3
		s0.3-0.5,0.3-0.8c0-0.1,0-0.3-0.1-0.4c0-0.1-0.1-0.2-0.2-0.3s-0.2-0.2-0.3-0.3c-0.1-0.1-0.3-0.2-0.4-0.2l-0.7-0.3
		c-0.9-0.4-1.4-1-1.4-1.7c0-0.5,0.2-0.9,0.6-1.3c0.4-0.3,0.9-0.5,1.4-0.5C50.7,73.9,51.3,74.3,51.8,75.1z"/>
	<path d="M56.3,78.1v2.7h-1V74h1.2c0.6,0,1,0,1.3,0.1c0.3,0.1,0.5,0.2,0.8,0.4C58.8,75,59,75.5,59,76c0,0.6-0.2,1.1-0.6,1.5
		c-0.4,0.4-1,0.5-1.7,0.5H56.3z M56.3,77.1h0.4c0.9,0,1.4-0.4,1.4-1.1c0-0.7-0.5-1-1.4-1h-0.3V77.1z"/>
	<path d="M65.6,79.2h-2.9L62,80.8h-1.1l3.3-7.2l3.2,7.2h-1.1L65.6,79.2z M65.2,78.2l-1-2.3l-1,2.3H65.2z"/>
	<path d="M75,74.4v1.2c-0.6-0.5-1.2-0.7-1.8-0.7c-0.7,0-1.3,0.2-1.8,0.7c-0.5,0.5-0.7,1.1-0.7,1.8c0,0.7,0.2,1.3,0.7,1.8
		c0.5,0.5,1.1,0.7,1.8,0.7c0.4,0,0.7-0.1,0.9-0.2c0.1-0.1,0.3-0.1,0.4-0.2c0.2-0.1,0.3-0.2,0.5-0.4v1.2c-0.6,0.3-1.2,0.5-1.8,0.5
		c-1,0-1.8-0.3-2.5-1c-0.7-0.7-1-1.5-1-2.5c0-0.9,0.3-1.6,0.9-2.3c0.7-0.8,1.6-1.2,2.7-1.2C73.8,73.9,74.4,74.1,75,74.4z"/>
	<path d="M82.1,75h-2.7v1.6H82v1h-2.6v2.3h2.7v1h-3.7V74h3.7V75z"/>
	<path d="M94.1,75.1l-0.8,0.5c-0.2-0.3-0.3-0.4-0.4-0.5c-0.1-0.1-0.3-0.1-0.6-0.1c-0.3,0-0.5,0.1-0.7,0.2c-0.2,0.2-0.3,0.4-0.3,0.6
		c0,0.3,0.2,0.6,0.7,0.8l0.7,0.3c0.5,0.2,0.9,0.5,1.2,0.8c0.3,0.3,0.4,0.7,0.4,1.2c0,0.6-0.2,1.1-0.6,1.5c-0.4,0.4-0.9,0.6-1.6,0.6
		c-0.6,0-1.1-0.2-1.5-0.5c-0.4-0.3-0.6-0.8-0.7-1.5l1-0.2c0,0.4,0.1,0.7,0.2,0.8c0.2,0.3,0.5,0.4,0.9,0.4c0.3,0,0.6-0.1,0.8-0.3
		s0.3-0.5,0.3-0.8c0-0.1,0-0.3-0.1-0.4c0-0.1-0.1-0.2-0.2-0.3s-0.2-0.2-0.3-0.3c-0.1-0.1-0.3-0.2-0.4-0.2l-0.7-0.3
		c-0.9-0.4-1.4-1-1.4-1.7c0-0.5,0.2-0.9,0.6-1.3c0.4-0.3,0.9-0.5,1.4-0.5C93.1,73.9,93.7,74.3,94.1,75.1z"/>
	<path d="M99.6,75v5.8h-1V75H97v-1h4.1v1H99.6z"/>
	<path d="M107.8,75h-2.7v1.6h2.6v1h-2.6v2.3h2.7v1h-3.7V74h3.7V75z"/>
	<path d="M111.5,74l1.8,4.5l1.8-4.8l1.8,4.8l1.9-4.5h1.1l-3,7.2l-1.7-4.8l-1.8,4.8l-2.9-7.2H111.5z"/>
	<path d="M126.1,79.2h-2.9l-0.8,1.6h-1.1l3.3-7.2l3.2,7.2h-1.1L126.1,79.2z M125.7,78.2l-1-2.3l-1,2.3H125.7z"/>
	<path d="M133.2,77.9l2.1,2.9H134l-1.9-2.8h-0.2v2.8h-1V74h1.2c0.9,0,1.5,0.2,1.9,0.5c0.4,0.4,0.7,0.9,0.7,1.5
		c0,0.5-0.1,0.9-0.4,1.2C134,77.6,133.6,77.8,133.2,77.9z M131.9,77.1h0.3c1,0,1.4-0.4,1.4-1.1c0-0.7-0.5-1-1.4-1h-0.4V77.1z"/>
	<path d="M138.3,80.8V74h1.4c0.7,0,1.2,0.1,1.6,0.2c0.4,0.1,0.8,0.4,1.2,0.7c0.7,0.6,1,1.5,1,2.5c0,1-0.4,1.9-1.1,2.5
		c-0.4,0.3-0.7,0.5-1.1,0.7c-0.4,0.1-0.9,0.2-1.6,0.2H138.3z M139.3,79.8h0.5c0.5,0,0.8,0,1.1-0.1c0.3-0.1,0.6-0.3,0.8-0.5
		c0.5-0.5,0.8-1.1,0.8-1.8c0-0.7-0.2-1.3-0.7-1.8c-0.4-0.4-1.1-0.6-2-0.6h-0.5V79.8z"/>
	<path d="M150.7,75.1l-0.8,0.5c-0.2-0.3-0.3-0.4-0.4-0.5c-0.1-0.1-0.3-0.1-0.6-0.1c-0.3,0-0.5,0.1-0.7,0.2c-0.2,0.2-0.3,0.4-0.3,0.6
		c0,0.3,0.2,0.6,0.7,0.8l0.7,0.3c0.5,0.2,0.9,0.5,1.2,0.8c0.3,0.3,0.4,0.7,0.4,1.2c0,0.6-0.2,1.1-0.6,1.5c-0.4,0.4-0.9,0.6-1.6,0.6
		c-0.6,0-1.1-0.2-1.5-0.5c-0.4-0.3-0.6-0.8-0.7-1.5l1-0.2c0,0.4,0.1,0.7,0.2,0.8c0.2,0.3,0.5,0.4,0.9,0.4c0.3,0,0.6-0.1,0.8-0.3
		s0.3-0.5,0.3-0.8c0-0.1,0-0.3-0.1-0.4c0-0.1-0.1-0.2-0.2-0.3s-0.2-0.2-0.3-0.3c-0.1-0.1-0.3-0.2-0.4-0.2l-0.7-0.3
		c-0.9-0.4-1.4-1-1.4-1.7c0-0.5,0.2-0.9,0.6-1.3c0.4-0.3,0.9-0.5,1.4-0.5C149.7,73.9,150.3,74.3,150.7,75.1z"/>
</g>
<g>
	<path d="M7.8,34.3h3.8l2,13.4l0.3,2c0.2,1.1,0.3,2.1,0.3,2.9l0.2,2.5c0,0.1,0,0.2,0,0.3c0,0.2,0,0.4,0.1,0.6l0.1-0.9
		c0.2-1.6,0.3-3.1,0.5-4.5c0.2-1.4,0.4-2.6,0.6-3.8l2.1-12.5h3l1.9,12.2c0.3,1.8,0.5,3.5,0.7,5c0.2,1.5,0.4,3,0.5,4.4
		c0.1-1.5,0.3-2.9,0.4-4.3c0.2-1.4,0.3-2.7,0.5-4l0.3-1.9l1.7-11.3h3.7l-5.1,28.9h-3l-2-12.5c0,0,0-0.3-0.1-0.6
		c0-0.4-0.1-0.9-0.2-1.6l-0.4-2.9c0-0.2-0.1-0.6-0.1-1c-0.1-0.4-0.1-1-0.2-1.7l-0.1-1.2c0,0.3,0,0.5-0.1,0.7c0,0.2,0,0.4-0.1,0.5
		c-0.1,0.8-0.1,1.5-0.2,1.9c0,0.5-0.1,0.7-0.1,0.8l-0.4,2.8c-0.1,0.6-0.2,1.1-0.2,1.5c0,0.4-0.1,0.6-0.1,0.7L16,63.2h-3.1L7.8,34.3z
		"/>
	<path d="M38.6,34.3h3l6.2,28.9h-3.9l-1.1-5.6h-5.7L36,63.2h-3.7L38.6,34.3z M42.3,54.5l-0.9-4.6c-0.6-3.1-1-6.5-1.4-10
		c-0.2,1.7-0.4,3.5-0.7,5.3c-0.3,1.8-0.6,3.7-1,5.7l-0.7,3.7H42.3z"/>
	<path d="M49.5,34.3h12.7v3.4h-4.4v25.5H54V37.7h-4.5V34.3z"/>
	<path d="M67,34.3h10.4v3.3h-6.5v9.2h5.7V50h-5.7v9.9h6.5v3.3H67V34.3z"/>
	<path d="M82.8,34.3h5.1c2.1,0,3.7,0.5,4.7,1.5c1.3,1.3,2,3.3,2,6c0,2.1-0.3,3.7-1,5c-0.7,1.3-1.7,2-3,2.3l5.3,14.1h-4L86.7,49v14.2
		h-3.9V34.3z M86.7,47.1c1.5,0,2.6-0.3,3.2-1c0.6-0.7,0.9-1.9,0.9-3.5c0-0.9-0.1-1.7-0.2-2.3c-0.1-0.6-0.3-1.2-0.6-1.6
		c-0.3-0.4-0.6-0.7-1.1-0.9c-0.4-0.2-1-0.3-1.6-0.3h-0.7V47.1z"/>
	<path d="M101.6,34.3h4.8c1.5,0,2.7,0.2,3.7,0.5c0.9,0.3,1.7,0.9,2.5,1.7c1.1,1.2,1.9,2.8,2.3,4.7c0.5,1.9,0.7,4.5,0.7,8
		c0,3.2-0.3,5.8-0.8,7.8c-0.5,1.9-1.3,3.4-2.5,4.4c-1.4,1.3-3.9,1.9-7.6,1.9h-3.1V34.3z M105.5,59.8c2.4,0,4-0.7,4.8-2.2
		c0.8-1.4,1.2-4.2,1.2-8.4c0-4.5-0.4-7.5-1.2-9.2c-0.8-1.7-2.2-2.5-4.3-2.5h-0.5V59.8z"/>
	<path d="M134.2,49.4c0,5.1-0.6,8.7-1.7,10.9s-3,3.2-5.7,3.2c-2.8,0-4.8-1.2-5.9-3.5c-1.1-2.3-1.7-6.3-1.7-12
		c0-5.1,0.6-8.8,1.7-10.9c1.1-2.1,3.1-3.2,5.8-3.2c2.4,0,4.2,0.8,5.4,2.5c0.8,1.1,1.3,2.7,1.7,4.7C134,43,134.2,45.8,134.2,49.4z
		 M130.1,49.8c0-5-0.2-8.3-0.7-10c-0.5-1.6-1.4-2.5-2.8-2.5c-1.4,0-2.3,0.8-2.8,2.3c-0.4,1.5-0.7,4.6-0.7,9.2c0,4.2,0.2,7.2,0.7,8.8
		c0.5,1.5,1.4,2.3,2.7,2.3c1.3,0,2.2-0.7,2.7-2.2C129.9,56.4,130.1,53.7,130.1,49.8z"/>
	<path d="M145.3,48h7.1v1.1c0,5.6-0.5,9.4-1.5,11.4c-1,2-2.8,3-5.5,3c-2.8,0-4.7-1.1-5.9-3.4c-1.2-2.2-1.7-6-1.7-11.3
		c0-6.1,0.6-10.1,1.9-12.1c1.2-1.9,3-2.8,5.5-2.8c1.9,0,3.4,0.5,4.4,1.4c1.1,0.9,1.9,2.4,2.5,4.6l-3.6,1.5c-0.2-0.8-0.3-1.4-0.5-1.9
		c-0.2-0.5-0.4-0.9-0.7-1.2c-0.5-0.6-1.2-0.9-2.1-0.9c-1.3,0-2.2,0.8-2.7,2.4c-0.5,1.7-0.7,4.7-0.7,9c0,4.4,0.2,7.4,0.7,8.9
		s1.4,2.3,2.8,2.3c1.2,0,2.1-0.5,2.6-1.6c0.5-1.2,0.8-3.1,0.8-5.7v-0.8v-0.6h-3.4V48z"/>
</g>
<polygon class="st0" points="103.2,68.3 101.8,68.3 7.8,68.3 7.8,70 101.8,70 103.2,70 154.2,70 154.2,68.3 "/>
<polygon class="st1" points="103.2,85.1 101.8,85.1 7.8,85.1 7.8,86.9 101.8,86.9 103.2,86.9 154.2,86.9 154.2,85.1 "/>
<g>
	<path class="st1" d="M54.1,20L7.8,29.5h43.6c1.9-0.7,12.1-4.6,20.8-7.9L54.1,20z"/>
	<polygon class="st1" points="134,16.7 122.7,7.1 110.2,13.7 102.4,21.8 119.9,27 	"/>
	<polygon class="st1" points="145.3,17.3 141,19.7 154.2,29.5 	"/>
	<path class="st0" d="M102.4,21.8l-17.3-5.2c0,0-6,2.3-12.9,4.9l28.1,2.4L102.4,21.8z"/>
	<polygon class="st0" points="141,19.7 135.5,15.6 134,16.7 138.8,20.9 	"/>
	<path class="st2" d="M154.2,29.5H51.4c-0.2,0.1-0.3,0.1-0.3,0.1L154.2,29.5z"/>
	<path class="st3" d="M141,19.7l-2.2,1.2l-4.9-4.1l-14,10.3l-17.5-5.2l-2.1,2.2l-28.1-2.4c-8.7,3.3-18.9,7.2-20.8,7.9h102.8
		L141,19.7z"/>
	<path class="st4" d="M141,19.7l-2.2,1.2l-4.9-4.1l-14,10.3l-17.5-5.2l-2.1,2.2l-28.1-2.4c-8.7,3.3-18.9,7.2-20.8,7.9h102.8
		L141,19.7z"/>
</g>
</svg>
